<?xml version="1.0" encoding="UTF-8" standalone="no"?>
<!DOCTYPE svg PUBLIC "-//W3C//DTD SVG 1.1//EN"
 "http://www.w3.org/Graphics/SVG/1.1/DTD/svg11.dtd">
<!-- Generated by graphviz version 13.1.1 (20250719.2154)
 -->
<!-- Title: SUMA_Usage Pages: 1 -->
<svg width="905pt" height="461pt"
 viewBox="0.00 0.00 905.00 461.00" xmlns="http://www.w3.org/2000/svg" xmlns:xlink="http://www.w3.org/1999/xlink">
<g id="graph0" class="graph" transform="scale(1 1) rotate(0) translate(4 457)">
<title>SUMA_Usage</title>
<polygon fill="white" stroke="none" points="-4,4 -4,-457 900.9,-457 900.9,4 -4,4"/>
<g id="clust1" class="cluster">
<title>cluster_user</title>
<polygon fill="none" stroke="black" stroke-dasharray="5,2" points="8,-145 8,-222 78,-222 78,-145 8,-145"/>
<text xml:space="preserve" text-anchor="middle" x="43" y="-205.4" font-family="Times,serif" font-size="14.00">Usuario</text>
</g>
<g id="clust2" class="cluster">
<title>cluster_cli</title>
<path fill="none" stroke="black" d="M110,-8C110,-8 357.27,-8 357.27,-8 363.27,-8 369.27,-14 369.27,-20 369.27,-20 369.27,-348 369.27,-348 369.27,-354 363.27,-360 357.27,-360 357.27,-360 110,-360 110,-360 104,-360 98,-354 98,-348 98,-348 98,-20 98,-20 98,-14 104,-8 110,-8"/>
<text xml:space="preserve" text-anchor="middle" x="233.63" y="-343.4" font-family="Times,serif" font-size="14.00">CLI de SUMA</text>
</g>
<g id="clust3" class="cluster">
<title>cluster_repl</title>
<path fill="none" stroke="black" d="M401.27,-148C401.27,-148 689.89,-148 689.89,-148 695.89,-148 701.89,-154 701.89,-160 701.89,-160 701.89,-433 701.89,-433 701.89,-439 695.89,-445 689.89,-445 689.89,-445 401.27,-445 401.27,-445 395.27,-445 389.27,-439 389.27,-433 389.27,-433 389.27,-160 389.27,-160 389.27,-154 395.27,-148 401.27,-148"/>
<text xml:space="preserve" text-anchor="middle" x="545.58" y="-428.4" font-family="Times,serif" font-size="14.00">REPL Interactivo</text>
</g>
<g id="clust4" class="cluster">
<title>cluster_codex</title>
<path fill="none" stroke="black" d="M547.29,-63C547.29,-63 678.21,-63 678.21,-63 684.21,-63 690.21,-69 690.21,-75 690.21,-75 690.21,-128 690.21,-128 690.21,-134 684.21,-140 678.21,-140 678.21,-140 547.29,-140 547.29,-140 541.29,-140 535.29,-134 535.29,-128 535.29,-128 535.29,-75 535.29,-75 535.29,-69 541.29,-63 547.29,-63"/>
<text xml:space="preserve" text-anchor="middle" x="612.75" y="-123.4" font-family="Times,serif" font-size="14.00">Codex (Parser + Engine)</text>
</g>
<g id="clust5" class="cluster">
<title>cluster_core</title>
<path fill="none" stroke="black" d="M733.89,-63C733.89,-63 884.9,-63 884.9,-63 890.9,-63 896.9,-69 896.9,-75 896.9,-75 896.9,-128 896.9,-128 896.9,-134 890.9,-140 884.9,-140 884.9,-140 733.89,-140 733.89,-140 727.89,-140 721.89,-134 721.89,-128 721.89,-128 721.89,-75 721.89,-75 721.89,-69 727.89,-63 733.89,-63"/>
<text xml:space="preserve" text-anchor="middle" x="809.4" y="-123.4" font-family="Times,serif" font-size="14.00">Core (Ejecuci贸n y Modelos)</text>
</g>
<!-- user -->
<g id="node1" class="node">
<title>user</title>
<path fill="none" stroke="black" d="M58,-189C58,-189 28,-189 28,-189 22,-189 16,-183 16,-177 16,-177 16,-165 16,-165 16,-159 22,-153 28,-153 28,-153 58,-153 58,-153 64,-153 70,-159 70,-165 70,-165 70,-177 70,-177 70,-183 64,-189 58,-189"/>
<text xml:space="preserve" text-anchor="middle" x="43" y="-167.4" font-family="Times,serif" font-size="12.00">Usuario</text>
</g>
<!-- cli -->
<g id="node2" class="node">
<title>cli</title>
<path fill="none" stroke="black" d="M165.65,-189C165.65,-189 118,-189 118,-189 112,-189 106,-183 106,-177 106,-177 106,-165 106,-165 106,-159 112,-153 118,-153 118,-153 165.65,-153 165.65,-153 171.65,-153 177.65,-159 177.65,-165 177.65,-165 177.65,-177 177.65,-177 177.65,-183 171.65,-189 165.65,-189"/>
<text xml:space="preserve" text-anchor="middle" x="141.83" y="-167.4" font-family="Times,serif" font-size="12.00">suma (CLI)</text>
</g>
<!-- user&#45;&gt;cli -->
<g id="edge12" class="edge">
<title>user&#45;&gt;cli</title>
<path fill="none" stroke="black" d="M70.46,-171C77.84,-171 86.09,-171 94.27,-171"/>
<polygon fill="black" stroke="black" points="94.17,-174.5 104.17,-171 94.17,-167.5 94.17,-174.5"/>
</g>
<!-- cli_run -->
<g id="node3" class="node">
<title>cli_run</title>
<path fill="none" stroke="black" d="M343.27,-162.4C343.27,-162.4 231.64,-162.4 231.64,-162.4 225.64,-162.4 219.64,-156.4 219.64,-150.4 219.64,-150.4 219.64,-137.6 219.64,-137.6 219.64,-131.6 225.64,-125.6 231.64,-125.6 231.64,-125.6 343.27,-125.6 343.27,-125.6 349.27,-125.6 355.27,-131.6 355.27,-137.6 355.27,-137.6 355.27,-150.4 355.27,-150.4 355.27,-156.4 349.27,-162.4 343.27,-162.4"/>
<text xml:space="preserve" text-anchor="middle" x="287.46" y="-147.6" font-family="Times,serif" font-size="12.00">Ejecutar archivos .suma</text>
<text xml:space="preserve" text-anchor="middle" x="287.46" y="-133.2" font-family="Times,serif" font-size="12.00">(suma run archivo.suma)</text>
</g>
<!-- cli&#45;&gt;cli_run -->
<g id="edge1" class="edge">
<title>cli&#45;&gt;cli_run</title>
<path fill="none" stroke="black" d="M177.96,-164.4C187.27,-162.65 197.7,-160.68 208.32,-158.69"/>
<polygon fill="black" stroke="black" points="208.74,-162.17 217.92,-156.88 207.45,-155.29 208.74,-162.17"/>
</g>
<!-- cli_compile -->
<g id="node4" class="node">
<title>cli_compile</title>
<path fill="none" stroke="black" d="M349.27,-107.4C349.27,-107.4 225.65,-107.4 225.65,-107.4 219.65,-107.4 213.65,-101.4 213.65,-95.4 213.65,-95.4 213.65,-82.6 213.65,-82.6 213.65,-76.6 219.65,-70.6 225.65,-70.6 225.65,-70.6 349.27,-70.6 349.27,-70.6 355.27,-70.6 361.27,-76.6 361.27,-82.6 361.27,-82.6 361.27,-95.4 361.27,-95.4 361.27,-101.4 355.27,-107.4 349.27,-107.4"/>
<text xml:space="preserve" text-anchor="middle" x="287.46" y="-92.6" font-family="Times,serif" font-size="12.00">Compilar/Validar modelos</text>
<text xml:space="preserve" text-anchor="middle" x="287.46" y="-78.2" font-family="Times,serif" font-size="12.00">(suma check archivo.suma)</text>
</g>
<!-- cli&#45;&gt;cli_compile -->
<g id="edge2" class="edge">
<title>cli&#45;&gt;cli_compile</title>
<path fill="none" stroke="black" d="M163.73,-152.53C177.28,-141.21 195.7,-127.03 213.65,-117 216.42,-115.45 219.3,-113.95 222.23,-112.51"/>
<polygon fill="black" stroke="black" points="223.41,-115.82 231.01,-108.44 220.47,-109.47 223.41,-115.82"/>
</g>
<!-- cli_fmt -->
<g id="node5" class="node">
<title>cli_fmt</title>
<path fill="none" stroke="black" d="M343.61,-52.4C343.61,-52.4 231.31,-52.4 231.31,-52.4 225.31,-52.4 219.31,-46.4 219.31,-40.4 219.31,-40.4 219.31,-27.6 219.31,-27.6 219.31,-21.6 225.31,-15.6 231.31,-15.6 231.31,-15.6 343.61,-15.6 343.61,-15.6 349.61,-15.6 355.61,-21.6 355.61,-27.6 355.61,-27.6 355.61,-40.4 355.61,-40.4 355.61,-46.4 349.61,-52.4 343.61,-52.4"/>
<text xml:space="preserve" text-anchor="middle" x="287.46" y="-37.6" font-family="Times,serif" font-size="12.00">Formatear c贸digo</text>
<text xml:space="preserve" text-anchor="middle" x="287.46" y="-23.2" font-family="Times,serif" font-size="12.00">(suma fmt archivo.suma)</text>
</g>
<!-- cli&#45;&gt;cli_fmt -->
<g id="edge3" class="edge">
<title>cli&#45;&gt;cli_fmt</title>
<path fill="none" stroke="black" d="M150.39,-152.63C161.14,-128.67 182.96,-86.86 213.65,-62 214.97,-60.93 216.33,-59.91 217.73,-58.91"/>
<polygon fill="black" stroke="black" points="219.49,-61.94 226.13,-53.68 215.8,-55.99 219.49,-61.94"/>
</g>
<!-- cli_docs -->
<g id="node6" class="node">
<title>cli_docs</title>
<path fill="none" stroke="black" d="M341.77,-217.4C341.77,-217.4 233.15,-217.4 233.15,-217.4 227.15,-217.4 221.15,-211.4 221.15,-205.4 221.15,-205.4 221.15,-192.6 221.15,-192.6 221.15,-186.6 227.15,-180.6 233.15,-180.6 233.15,-180.6 341.77,-180.6 341.77,-180.6 347.77,-180.6 353.77,-186.6 353.77,-192.6 353.77,-192.6 353.77,-205.4 353.77,-205.4 353.77,-211.4 347.77,-217.4 341.77,-217.4"/>
<text xml:space="preserve" text-anchor="middle" x="287.46" y="-202.6" font-family="Times,serif" font-size="12.00">Documentaci贸n y ayuda</text>
<text xml:space="preserve" text-anchor="middle" x="287.46" y="-188.2" font-family="Times,serif" font-size="12.00">(suma help)</text>
</g>
<!-- cli&#45;&gt;cli_docs -->
<g id="edge4" class="edge">
<title>cli&#45;&gt;cli_docs</title>
<path fill="none" stroke="black" d="M177.96,-177.85C187.68,-179.74 198.62,-181.88 209.72,-184.04"/>
<polygon fill="black" stroke="black" points="208.86,-187.44 219.35,-185.92 210.2,-180.57 208.86,-187.44"/>
</g>
<!-- cli_repl -->
<g id="node7" class="node">
<title>cli_repl</title>
<path fill="none" stroke="black" d="M320.45,-272.4C320.45,-272.4 254.47,-272.4 254.47,-272.4 248.47,-272.4 242.47,-266.4 242.47,-260.4 242.47,-260.4 242.47,-247.6 242.47,-247.6 242.47,-241.6 248.47,-235.6 254.47,-235.6 254.47,-235.6 320.45,-235.6 320.45,-235.6 326.45,-235.6 332.45,-241.6 332.45,-247.6 332.45,-247.6 332.45,-260.4 332.45,-260.4 332.45,-266.4 326.45,-272.4 320.45,-272.4"/>
<text xml:space="preserve" text-anchor="middle" x="287.46" y="-257.6" font-family="Times,serif" font-size="12.00">Entrar al REPL</text>
<text xml:space="preserve" text-anchor="middle" x="287.46" y="-243.2" font-family="Times,serif" font-size="12.00">(suma repl)</text>
</g>
<!-- cli&#45;&gt;cli_repl -->
<g id="edge5" class="edge">
<title>cli&#45;&gt;cli_repl</title>
<path fill="none" stroke="black" d="M163.07,-189.32C176.65,-200.94 195.35,-215.67 213.65,-226 219.32,-229.2 225.42,-232.18 231.6,-234.92"/>
<polygon fill="black" stroke="black" points="230.03,-238.06 240.61,-238.7 232.74,-231.6 230.03,-238.06"/>
</g>
<!-- cli_tools -->
<g id="node8" class="node">
<title>cli_tools</title>
<path fill="none" stroke="black" d="M339.94,-327.4C339.94,-327.4 234.98,-327.4 234.98,-327.4 228.98,-327.4 222.98,-321.4 222.98,-315.4 222.98,-315.4 222.98,-302.6 222.98,-302.6 222.98,-296.6 228.98,-290.6 234.98,-290.6 234.98,-290.6 339.94,-290.6 339.94,-290.6 345.94,-290.6 351.94,-296.6 351.94,-302.6 351.94,-302.6 351.94,-315.4 351.94,-315.4 351.94,-321.4 345.94,-327.4 339.94,-327.4"/>
<text xml:space="preserve" text-anchor="middle" x="287.46" y="-312.6" font-family="Times,serif" font-size="12.00">Herramientas utilitarias</text>
<text xml:space="preserve" text-anchor="middle" x="287.46" y="-298.2" font-family="Times,serif" font-size="12.00">(export, inspect, etc.)</text>
</g>
<!-- cli&#45;&gt;cli_tools -->
<g id="edge6" class="edge">
<title>cli&#45;&gt;cli_tools</title>
<path fill="none" stroke="black" d="M150.17,-189.12C160.79,-213.24 182.64,-255.77 213.65,-281 214.97,-282.07 216.32,-283.1 217.72,-284.09"/>
<polygon fill="black" stroke="black" points="215.78,-287.01 226.12,-289.34 219.49,-281.07 215.78,-287.01"/>
</g>
<!-- codex -->
<g id="node15" class="node">
<title>codex</title>
<path fill="none" stroke="black" d="M627.25,-107C627.25,-107 597.25,-107 597.25,-107 591.25,-107 585.25,-101 585.25,-95 585.25,-95 585.25,-83 585.25,-83 585.25,-77 591.25,-71 597.25,-71 597.25,-71 627.25,-71 627.25,-71 633.25,-71 639.25,-77 639.25,-83 639.25,-83 639.25,-95 639.25,-95 639.25,-101 633.25,-107 627.25,-107"/>
<text xml:space="preserve" text-anchor="middle" x="612.25" y="-85.4" font-family="Times,serif" font-size="12.00">Codex</text>
</g>
<!-- cli_run&#45;&gt;codex -->
<g id="edge14" class="edge">
<title>cli_run&#45;&gt;codex</title>
<path fill="none" stroke="black" d="M355.73,-132.54C421.87,-121.27 520.41,-104.48 573.73,-95.39"/>
<polygon fill="black" stroke="black" points="574.25,-98.85 583.52,-93.72 573.08,-91.95 574.25,-98.85"/>
</g>
<!-- cli_compile&#45;&gt;codex -->
<g id="edge15" class="edge">
<title>cli_compile&#45;&gt;codex</title>
<path fill="none" stroke="black" d="M361.71,-89C427.63,-89 521.85,-89 573.61,-89"/>
<polygon fill="black" stroke="black" points="573.38,-92.5 583.38,-89 573.38,-85.5 573.38,-92.5"/>
</g>
<!-- cli_fmt&#45;&gt;codex -->
<g id="edge16" class="edge">
<title>cli_fmt&#45;&gt;codex</title>
<path fill="none" stroke="black" d="M355.73,-45.46C421.87,-56.73 520.41,-73.52 573.73,-82.61"/>
<polygon fill="black" stroke="black" points="573.08,-86.05 583.52,-84.28 574.25,-79.15 573.08,-86.05"/>
</g>
<!-- repl -->
<g id="node9" class="node">
<title>repl</title>
<path fill="none" stroke="black" d="M482.61,-272C482.61,-272 409.27,-272 409.27,-272 403.27,-272 397.27,-266 397.27,-260 397.27,-260 397.27,-248 397.27,-248 397.27,-242 403.27,-236 409.27,-236 409.27,-236 482.61,-236 482.61,-236 488.61,-236 494.61,-242 494.61,-248 494.61,-248 494.61,-260 494.61,-260 494.61,-266 488.61,-272 482.61,-272"/>
<text xml:space="preserve" text-anchor="middle" x="445.94" y="-250.4" font-family="Times,serif" font-size="12.00">REPL de SUMA</text>
</g>
<!-- cli_repl&#45;&gt;repl -->
<g id="edge13" class="edge">
<title>cli_repl&#45;&gt;repl</title>
<path fill="none" stroke="black" d="M332.88,-254C349.26,-254 368.09,-254 385.58,-254"/>
<polygon fill="black" stroke="black" points="385.33,-257.5 395.33,-254 385.33,-250.5 385.33,-257.5"/>
</g>
<!-- repl_expr -->
<g id="node10" class="node">
<title>repl_expr</title>
<path fill="none" stroke="black" d="M656.73,-192.4C656.73,-192.4 567.77,-192.4 567.77,-192.4 561.77,-192.4 555.77,-186.4 555.77,-180.4 555.77,-180.4 555.77,-167.6 555.77,-167.6 555.77,-161.6 561.77,-155.6 567.77,-155.6 567.77,-155.6 656.73,-155.6 656.73,-155.6 662.73,-155.6 668.73,-161.6 668.73,-167.6 668.73,-167.6 668.73,-180.4 668.73,-180.4 668.73,-186.4 662.73,-192.4 656.73,-192.4"/>
<text xml:space="preserve" text-anchor="middle" x="612.25" y="-177.6" font-family="Times,serif" font-size="12.00">Evaluar expresiones</text>
<text xml:space="preserve" text-anchor="middle" x="612.25" y="-163.2" font-family="Times,serif" font-size="12.00">inline</text>
</g>
<!-- repl&#45;&gt;repl_expr -->
<g id="edge7" class="edge">
<title>repl&#45;&gt;repl_expr</title>
<path fill="none" stroke="black" d="M473.21,-235.57C489.28,-224.83 510.54,-211.57 530.61,-202 535.17,-199.82 539.95,-197.73 544.8,-195.74"/>
<polygon fill="black" stroke="black" points="546.06,-199 554.09,-192.09 543.51,-192.48 546.06,-199"/>
</g>
<!-- repl_query -->
<g id="node11" class="node">
<title>repl_query</title>
<path fill="none" stroke="black" d="M681.89,-247.4C681.89,-247.4 542.61,-247.4 542.61,-247.4 536.61,-247.4 530.61,-241.4 530.61,-235.4 530.61,-235.4 530.61,-222.6 530.61,-222.6 530.61,-216.6 536.61,-210.6 542.61,-210.6 542.61,-210.6 681.89,-210.6 681.89,-210.6 687.89,-210.6 693.89,-216.6 693.89,-222.6 693.89,-222.6 693.89,-235.4 693.89,-235.4 693.89,-241.4 687.89,-247.4 681.89,-247.4"/>
<text xml:space="preserve" text-anchor="middle" x="612.25" y="-232.6" font-family="Times,serif" font-size="12.00">Queries a modelos</text>
<text xml:space="preserve" text-anchor="middle" x="612.25" y="-218.2" font-family="Times,serif" font-size="12.00">(model.inspect, model.predict)</text>
</g>
<!-- repl&#45;&gt;repl_query -->
<g id="edge8" class="edge">
<title>repl&#45;&gt;repl_query</title>
<path fill="none" stroke="black" d="M494.9,-246.7C502.52,-245.54 510.62,-244.31 518.86,-243.06"/>
<polygon fill="black" stroke="black" points="519.29,-246.53 528.65,-241.57 518.23,-239.61 519.29,-246.53"/>
</g>
<!-- repl_debug -->
<g id="node12" class="node">
<title>repl_debug</title>
<path fill="none" stroke="black" d="M662.4,-302.4C662.4,-302.4 562.1,-302.4 562.1,-302.4 556.1,-302.4 550.1,-296.4 550.1,-290.4 550.1,-290.4 550.1,-277.6 550.1,-277.6 550.1,-271.6 556.1,-265.6 562.1,-265.6 562.1,-265.6 662.4,-265.6 662.4,-265.6 668.4,-265.6 674.4,-271.6 674.4,-277.6 674.4,-277.6 674.4,-290.4 674.4,-290.4 674.4,-296.4 668.4,-302.4 662.4,-302.4"/>
<text xml:space="preserve" text-anchor="middle" x="612.25" y="-287.6" font-family="Times,serif" font-size="12.00">Debugging conceptual</text>
<text xml:space="preserve" text-anchor="middle" x="612.25" y="-273.2" font-family="Times,serif" font-size="12.00">(print AST, print IR)</text>
</g>
<!-- repl&#45;&gt;repl_debug -->
<g id="edge9" class="edge">
<title>repl&#45;&gt;repl_debug</title>
<path fill="none" stroke="black" d="M494.9,-262.76C508.57,-265.25 523.76,-268.03 538.55,-270.73"/>
<polygon fill="black" stroke="black" points="537.79,-274.15 548.25,-272.5 539.04,-267.26 537.79,-274.15"/>
</g>
<!-- repl_define -->
<g id="node13" class="node">
<title>repl_define</title>
<path fill="none" stroke="black" d="M668.07,-357.4C668.07,-357.4 556.43,-357.4 556.43,-357.4 550.43,-357.4 544.43,-351.4 544.43,-345.4 544.43,-345.4 544.43,-332.6 544.43,-332.6 544.43,-326.6 550.43,-320.6 556.43,-320.6 556.43,-320.6 668.07,-320.6 668.07,-320.6 674.07,-320.6 680.07,-326.6 680.07,-332.6 680.07,-332.6 680.07,-345.4 680.07,-345.4 680.07,-351.4 674.07,-357.4 668.07,-357.4"/>
<text xml:space="preserve" text-anchor="middle" x="612.25" y="-342.6" font-family="Times,serif" font-size="12.00">Definir modelos al vuelo</text>
<text xml:space="preserve" text-anchor="middle" x="612.25" y="-328.2" font-family="Times,serif" font-size="12.00">let M = Model {...}</text>
</g>
<!-- repl&#45;&gt;repl_define -->
<g id="edge10" class="edge">
<title>repl&#45;&gt;repl_define</title>
<path fill="none" stroke="black" d="M470.42,-272.48C486.64,-284.61 509.09,-300.18 530.61,-311 534.02,-312.72 537.56,-314.37 541.18,-315.96"/>
<polygon fill="black" stroke="black" points="539.52,-319.06 550.09,-319.67 542.21,-312.6 539.52,-319.06"/>
</g>
<!-- repl_load -->
<g id="node14" class="node">
<title>repl_load</title>
<path fill="none" stroke="black" d="M653.9,-412.4C653.9,-412.4 570.6,-412.4 570.6,-412.4 564.6,-412.4 558.6,-406.4 558.6,-400.4 558.6,-400.4 558.6,-387.6 558.6,-387.6 558.6,-381.6 564.6,-375.6 570.6,-375.6 570.6,-375.6 653.9,-375.6 653.9,-375.6 659.9,-375.6 665.9,-381.6 665.9,-387.6 665.9,-387.6 665.9,-400.4 665.9,-400.4 665.9,-406.4 659.9,-412.4 653.9,-412.4"/>
<text xml:space="preserve" text-anchor="middle" x="612.25" y="-397.6" font-family="Times,serif" font-size="12.00">Cargar m贸dulos</text>
<text xml:space="preserve" text-anchor="middle" x="612.25" y="-383.2" font-family="Times,serif" font-size="12.00">:load archivo.suma</text>
</g>
<!-- repl&#45;&gt;repl_load -->
<g id="edge11" class="edge">
<title>repl&#45;&gt;repl_load</title>
<path fill="none" stroke="black" d="M456.02,-272.17C469.21,-296.8 495.94,-340.63 530.61,-366 535.89,-369.87 541.76,-373.24 547.84,-376.16"/>
<polygon fill="black" stroke="black" points="546.28,-379.3 556.85,-380.07 549.07,-372.88 546.28,-379.3"/>
</g>
<!-- repl&#45;&gt;codex -->
<g id="edge17" class="edge">
<title>repl&#45;&gt;codex</title>
<path fill="none" stroke="black" d="M458.13,-235.82C472.88,-212.77 500.5,-172.58 530.61,-144 544.11,-131.17 560.89,-119.22 575.64,-109.76"/>
<polygon fill="black" stroke="black" points="577.07,-112.99 583.7,-104.72 573.36,-107.05 577.07,-112.99"/>
</g>
<!-- core -->
<g id="node16" class="node">
<title>core</title>
<path fill="none" stroke="black" d="M823.9,-107C823.9,-107 793.9,-107 793.9,-107 787.9,-107 781.9,-101 781.9,-95 781.9,-95 781.9,-83 781.9,-83 781.9,-77 787.9,-71 793.9,-71 793.9,-71 823.9,-71 823.9,-71 829.9,-71 835.9,-77 835.9,-83 835.9,-83 835.9,-95 835.9,-95 835.9,-101 829.9,-107 823.9,-107"/>
<text xml:space="preserve" text-anchor="middle" x="808.9" y="-85.4" font-family="Times,serif" font-size="12.00">Core</text>
</g>
<!-- codex&#45;&gt;core -->
<g id="edge18" class="edge">
<title>codex&#45;&gt;core</title>
<path fill="none" stroke="black" d="M639.5,-89C673.09,-89 731.53,-89 769.96,-89"/>
<polygon fill="black" stroke="black" points="769.93,-92.5 779.93,-89 769.93,-85.5 769.93,-92.5"/>
</g>
</g>
</svg>
